<svg width="64" height="64" viewBox="0 0 64 64" fill="none" xmlns="http://www.w3.org/2000/svg">
<rect width="64" height="64" fill="transparent"/>
<!-- Корпус корабля -->
<path d="M8 42H56V46H52V50H48V54H44V58H40V62H8V42Z" fill="#991b1b"/>
<!-- Башни (меньше чем у BB) -->
<path d="M16 46H24V58H16V46Z" fill="#dc2626"/>
<path d="M32 46H40V58H32V46Z" fill="#dc2626"/>
<path d="M48 46H56V50H54V58H48V46Z" fill="#dc2626"/>
<!-- Надстройка -->
<path d="M20 34H44V42H20V34Z" fill="#b91c1c"/>
<path d="M24 26H40V34H24V26Z" fill="#dc2626"/>
<!-- Трубы -->
<rect x="22" y="22" width="4" height="12" fill="#b91c1c"/>
<rect x="30" y="22" width="4" height="12" fill="#b91c1c"/>
<rect x="38" y="22" width="4" height="12" fill="#b91c1c"/>
<!-- Детали -->
<circle cx="24" cy="38" r="1" fill="#f87171"/>
<circle cx="32" cy="38" r="1" fill="#f87171"/>
<circle cx="40" cy="38" r="1" fill="#f87171"/>
</svg>