<svg width="64" height="64" viewBox="0 0 64 64" fill="none" xmlns="http://www.w3.org/2000/svg">
<rect width="64" height="64" fill="transparent"/>
<!-- Корпус корабля -->
<path d="M12 44H52V48H48V52H44V56H40V60H12V44Z" fill="#991b1b"/>
<!-- Башни -->
<path d="M16 48H24V56H16V48Z" fill="#dc2626"/>
<path d="M32 48H40V56H32V48Z" fill="#dc2626"/>
<path d="M48 48H52V52H50V56H48V48Z" fill="#dc2626"/>
<!-- Надстройка -->
<path d="M20 36H44V44H20V36Z" fill="#b91c1c"/>
<path d="M24 28H40V36H24V28Z" fill="#dc2626"/>
<!-- Трубы -->
<rect x="26" y="24" width="4" height="12" fill="#b91c1c"/>
<rect x="34" y="24" width="4" height="12" fill="#b91c1c"/>
<!-- Детали -->
<circle cx="24" cy="40" r="1" fill="#f87171"/>
<circle cx="32" cy="40" r="1" fill="#f87171"/>
<circle cx="40" cy="40" r="1" fill="#f87171"/>
</svg>